<svg xmlns="http://www.w3.org/2000/svg" xmlns:xlink="http://www.w3.org/1999/xlink" width="500" zoomAndPan="magnify" viewBox="0 0 375 374.999991" height="500" preserveAspectRatio="xMidYMid meet" version="1.0"><defs><clipPath id="d3ac883c71"><path d="M 231 36 L 339 36 L 339 144 L 231 144 Z M 231 36 " clip-rule="nonzero"/></clipPath><clipPath id="a7e2cc7933"><path d="M 285.085938 0 L 375.242188 90.15625 L 285.085938 180.3125 L 194.929688 90.15625 Z M 285.085938 0 " clip-rule="nonzero"/></clipPath><clipPath id="2995ba799d"><path d="M 285.085938 0 L 375.242188 90.15625 L 285.085938 180.3125 L 194.929688 90.15625 Z M 285.085938 0 " clip-rule="nonzero"/></clipPath><clipPath id="be89617db4"><path d="M 285.085938 0 L 375.242188 90.15625 L 285.085938 180.3125 L 194.929688 90.15625 Z M 285.085938 0 " clip-rule="nonzero"/></clipPath></defs><path fill="#2196f3" d="M 112.5 300 C 105.625 300 99.738281 297.550781 94.84375 292.65625 C 89.949219 287.761719 87.5 281.875 87.5 275 L 87.5 125 C 87.5 118.125 89.949219 112.238281 94.84375 107.34375 C 99.738281 102.449219 105.625 100 112.5 100 L 225 100 C 231.875 100 237.761719 102.449219 242.65625 107.34375 C 247.550781 112.238281 250 118.125 250 125 L 250 275 C 250 281.875 247.550781 287.761719 242.65625 292.65625 C 237.761719 297.550781 231.875 300 225 300 Z M 112.5 275 L 225 275 L 225 125 L 112.5 125 Z M 62.5 350 C 55.625 350 49.738281 347.550781 44.84375 342.65625 C 39.949219 337.761719 37.5 331.875 37.5 325 L 37.5 150 L 62.5 150 L 62.5 325 L 200 325 L 200 350 Z M 112.5 275 L 112.5 125 Z M 112.5 275 " fill-opacity="1" fill-rule="nonzero"/><g clip-path="url(#d3ac883c71)"><g clip-path="url(#a7e2cc7933)"><g clip-path="url(#2995ba799d)"><g clip-path="url(#be89617db4)"><path fill="#2196f3" d="M 240.007812 86.402344 C 234.246094 80.640625 231.367188 73.753906 231.367188 65.738281 C 231.367188 57.726562 234.246094 50.839844 240.007812 45.078125 C 245.765625 39.320312 252.652344 36.441406 260.667969 36.441406 C 268.679688 36.441406 275.566406 39.320312 281.328125 45.078125 C 283.644531 47.394531 285.460938 50.027344 286.773438 52.96875 C 288.089844 55.910156 288.839844 58.976562 289.027344 62.171875 L 289.59375 74.378906 L 278.886719 73.816406 L 278.324219 62.734375 C 278.199219 60.855469 277.757812 59.042969 277.007812 57.289062 C 276.257812 55.535156 275.191406 53.96875 273.816406 52.59375 C 270.183594 48.960938 265.800781 47.144531 260.667969 47.144531 C 255.53125 47.144531 251.152344 48.960938 247.519531 52.59375 C 243.886719 56.222656 242.074219 60.605469 242.074219 65.738281 C 242.074219 70.875 243.886719 75.257812 247.519531 78.886719 C 248.898438 80.265625 250.460938 81.328125 252.214844 82.082031 C 253.96875 82.832031 255.785156 83.269531 257.660156 83.394531 L 313.070312 86.214844 C 316.261719 86.402344 319.332031 87.152344 322.273438 88.46875 C 325.214844 89.78125 327.847656 91.597656 330.164062 93.914062 C 335.921875 99.675781 338.800781 106.5625 338.800781 114.574219 C 338.800781 122.589844 335.921875 129.476562 330.164062 135.234375 C 324.402344 140.996094 317.515625 143.875 309.5 143.875 C 301.488281 143.875 294.601562 140.996094 288.839844 135.234375 C 286.523438 132.917969 284.707031 130.289062 283.394531 127.347656 C 282.078125 124.40625 281.328125 121.335938 281.140625 118.144531 L 280.578125 105.933594 L 291.28125 106.5 L 291.847656 117.578125 C 291.972656 119.457031 292.410156 121.273438 293.160156 123.027344 C 293.910156 124.78125 294.976562 126.34375 296.355469 127.722656 C 299.984375 131.355469 304.367188 133.167969 309.5 133.167969 C 314.636719 133.167969 319.019531 131.355469 322.648438 127.722656 C 326.28125 124.089844 328.097656 119.707031 328.097656 114.574219 C 328.097656 109.441406 326.28125 105.058594 322.648438 101.425781 C 321.273438 100.050781 319.707031 98.984375 317.953125 98.234375 C 316.199219 97.484375 314.386719 97.042969 312.507812 96.917969 L 257.097656 94.101562 C 253.90625 93.914062 250.835938 93.164062 247.894531 91.847656 C 244.953125 90.53125 242.324219 88.71875 240.007812 86.402344 Z M 240.007812 86.402344 " fill-opacity="1" fill-rule="nonzero"/></g></g></g></g></svg>