<svg xmlns="http://www.w3.org/2000/svg" xmlns:xlink="http://www.w3.org/1999/xlink" width="500" zoomAndPan="magnify" viewBox="0 0 375 374.999991" height="500" preserveAspectRatio="xMidYMid meet" version="1.0"><defs><clipPath id="70e09cc69e"><path d="M 231 36 L 339 36 L 339 144 L 231 144 Z M 231 36 " clip-rule="nonzero"/></clipPath><clipPath id="02dee6503f"><path d="M 285.085938 0 L 375.242188 90.15625 L 285.085938 180.3125 L 194.929688 90.15625 Z M 285.085938 0 " clip-rule="nonzero"/></clipPath><clipPath id="22de48477d"><path d="M 285.085938 0 L 375.242188 90.15625 L 285.085938 180.3125 L 194.929688 90.15625 Z M 285.085938 0 " clip-rule="nonzero"/></clipPath></defs><path fill="#ffffff" d="M 112.5 300 C 105.625 300 99.738281 297.550781 94.84375 292.65625 C 89.949219 287.761719 87.5 281.875 87.5 275 L 87.5 125 C 87.5 118.125 89.949219 112.238281 94.84375 107.34375 C 99.738281 102.449219 105.625 100 112.5 100 L 225 100 C 231.875 100 237.761719 102.449219 242.65625 107.34375 C 247.550781 112.238281 250 118.125 250 125 L 250 275 C 250 281.875 247.550781 287.761719 242.65625 292.65625 C 237.761719 297.550781 231.875 300 225 300 Z M 112.5 275 L 225 275 L 225 125 L 112.5 125 Z M 62.5 350 C 55.625 350 49.738281 347.550781 44.84375 342.65625 C 39.949219 337.761719 37.5 331.875 37.5 325 L 37.5 150 L 62.5 150 L 62.5 325 L 200 325 L 200 350 Z M 112.5 275 L 112.5 125 Z M 112.5 275 " fill-opacity="1" fill-rule="nonzero"/><g clip-path="url(#70e09cc69e)"><g clip-path="url(#02dee6503f)"><g clip-path="url(#22de48477d)"><path fill="#ffffff" d="M 240.128906 86.164062 C 234.386719 80.417969 231.515625 73.550781 231.515625 65.558594 C 231.515625 57.566406 234.386719 50.699219 240.128906 44.957031 C 245.875 39.210938 252.742188 36.339844 260.734375 36.339844 C 268.726562 36.339844 275.59375 39.210938 281.339844 44.957031 C 283.648438 47.265625 285.457031 49.886719 286.769531 52.820312 C 288.082031 55.757812 288.832031 58.816406 289.019531 62 L 289.578125 74.175781 L 278.902344 73.613281 L 278.339844 62.5625 C 278.214844 60.6875 277.78125 58.878906 277.03125 57.128906 C 276.28125 55.382812 275.21875 53.820312 273.847656 52.449219 C 270.226562 48.824219 265.855469 47.015625 260.734375 47.015625 C 255.613281 47.015625 251.246094 48.824219 247.621094 52.449219 C 244 56.070312 242.191406 60.4375 242.191406 65.558594 C 242.191406 70.679688 244 75.050781 247.621094 78.671875 C 248.996094 80.042969 250.558594 81.105469 252.304688 81.855469 C 254.054688 82.605469 255.863281 83.039062 257.738281 83.164062 L 312.992188 85.976562 C 316.175781 86.164062 319.238281 86.910156 322.171875 88.222656 C 325.105469 89.535156 327.726562 91.34375 330.039062 93.65625 C 335.78125 99.398438 338.652344 106.265625 338.652344 114.257812 C 338.652344 122.25 335.78125 129.117188 330.039062 134.863281 C 324.292969 140.605469 317.425781 143.480469 309.433594 143.480469 C 301.441406 143.480469 294.574219 140.605469 288.832031 134.863281 C 286.519531 132.550781 284.710938 129.929688 283.398438 126.996094 C 282.085938 124.0625 281.339844 121 281.152344 117.816406 L 280.589844 105.644531 L 291.265625 106.203125 L 291.828125 117.253906 C 291.953125 119.128906 292.390625 120.941406 293.136719 122.6875 C 293.886719 124.4375 294.949219 125.996094 296.324219 127.371094 C 299.945312 130.992188 304.316406 132.800781 309.433594 132.800781 C 314.554688 132.800781 318.925781 130.992188 322.546875 127.371094 C 326.167969 123.75 327.976562 119.378906 327.976562 114.257812 C 327.976562 109.140625 326.167969 104.769531 322.546875 101.148438 C 321.171875 99.773438 319.609375 98.710938 317.863281 97.964844 C 316.113281 97.214844 314.304688 96.777344 312.429688 96.652344 L 257.175781 93.84375 C 253.992188 93.65625 250.933594 92.90625 247.996094 91.59375 C 245.0625 90.285156 242.441406 88.472656 240.128906 86.164062 Z M 240.128906 86.164062 " fill-opacity="1" fill-rule="nonzero"/></g></g></g></svg>